G04 #@! TF.FileFunction,Legend,Top*
%FSLAX46Y46*%
G04 Gerber Fmt 4.6, Leading zero omitted, Abs format (unit mm)*
G04 Created by KiCad (PCBNEW 4.0.1-stable) date 03/05/2016 22:29:02*
%MOMM*%
G01*
G04 APERTURE LIST*
%ADD10C,0.100000*%
%ADD11C,0.152400*%
%ADD12C,0.150000*%
%ADD13C,0.127000*%
%ADD14C,0.101600*%
%ADD15C,0.076200*%
%ADD16C,2.127200*%
%ADD17R,2.127200X2.127200*%
%ADD18O,2.127200X2.127200*%
%ADD19R,2.432000X2.432000*%
%ADD20O,2.432000X2.432000*%
%ADD21R,1.900000X1.650000*%
G04 APERTURE END LIST*
D10*
D11*
X161806857Y-105526143D02*
X161855238Y-105574524D01*
X161903619Y-105719667D01*
X161903619Y-105816429D01*
X161855238Y-105961571D01*
X161758476Y-106058333D01*
X161661714Y-106106714D01*
X161468190Y-106155095D01*
X161323048Y-106155095D01*
X161129524Y-106106714D01*
X161032762Y-106058333D01*
X160936000Y-105961571D01*
X160887619Y-105816429D01*
X160887619Y-105719667D01*
X160936000Y-105574524D01*
X160984381Y-105526143D01*
X161371429Y-105090714D02*
X161371429Y-104752048D01*
X161903619Y-104606905D02*
X161903619Y-105090714D01*
X160887619Y-105090714D01*
X160887619Y-104606905D01*
X169299857Y-106082524D02*
X169348238Y-106130905D01*
X169396619Y-106276048D01*
X169396619Y-106372810D01*
X169348238Y-106517952D01*
X169251476Y-106614714D01*
X169154714Y-106663095D01*
X168961190Y-106711476D01*
X168816048Y-106711476D01*
X168622524Y-106663095D01*
X168525762Y-106614714D01*
X168429000Y-106517952D01*
X168380619Y-106372810D01*
X168380619Y-106276048D01*
X168429000Y-106130905D01*
X168477381Y-106082524D01*
X169348238Y-105695476D02*
X169396619Y-105550333D01*
X169396619Y-105308429D01*
X169348238Y-105211667D01*
X169299857Y-105163286D01*
X169203095Y-105114905D01*
X169106333Y-105114905D01*
X169009571Y-105163286D01*
X168961190Y-105211667D01*
X168912810Y-105308429D01*
X168864429Y-105501952D01*
X168816048Y-105598714D01*
X168767667Y-105647095D01*
X168670905Y-105695476D01*
X168574143Y-105695476D01*
X168477381Y-105647095D01*
X168429000Y-105598714D01*
X168380619Y-105501952D01*
X168380619Y-105260048D01*
X168429000Y-105114905D01*
X169396619Y-104679476D02*
X168380619Y-104679476D01*
X169396619Y-104098905D01*
X168380619Y-104098905D01*
D12*
X157354600Y-94789200D02*
X159793000Y-94789200D01*
X159793000Y-94789200D02*
X159793000Y-97329200D01*
X159869200Y-97329200D02*
X167489200Y-97329200D01*
X159869200Y-92223800D02*
X167489200Y-92223800D01*
X167489200Y-92223800D02*
X167489200Y-97303800D01*
X158599200Y-97557200D02*
X157049200Y-97557200D01*
X157329200Y-92223800D02*
X159869200Y-92223800D01*
X157329200Y-94763800D02*
X157329200Y-92223800D01*
X157049200Y-96007800D02*
X157049200Y-97557800D01*
X167947000Y-103767500D02*
X166397000Y-103767500D01*
X162587000Y-104047500D02*
X165127000Y-104047500D01*
X165127000Y-104047500D02*
X165127000Y-106587500D01*
X166397000Y-106867500D02*
X167947000Y-106867500D01*
X167947000Y-106867500D02*
X167947000Y-103767500D01*
X165127000Y-106587500D02*
X162587000Y-106587500D01*
X162587000Y-106587500D02*
X162587000Y-104047500D01*
X160293000Y-88656000D02*
X159293000Y-88656000D01*
X159293000Y-90356000D02*
X160293000Y-90356000D01*
D11*
X157476763Y-91870619D02*
X157476763Y-90854619D01*
X158057334Y-91870619D01*
X158057334Y-90854619D01*
X159121715Y-91870619D02*
X158783049Y-91386810D01*
X158541144Y-91870619D02*
X158541144Y-90854619D01*
X158928191Y-90854619D01*
X159024953Y-90903000D01*
X159073334Y-90951381D01*
X159121715Y-91048143D01*
X159121715Y-91193286D01*
X159073334Y-91290048D01*
X159024953Y-91338429D01*
X158928191Y-91386810D01*
X158541144Y-91386810D01*
X159895810Y-91338429D02*
X159557144Y-91338429D01*
X159557144Y-91870619D02*
X159557144Y-90854619D01*
X160040953Y-90854619D01*
X160186096Y-91967381D02*
X160960191Y-91967381D01*
X161153715Y-90951381D02*
X161202096Y-90903000D01*
X161298858Y-90854619D01*
X161540762Y-90854619D01*
X161637524Y-90903000D01*
X161685905Y-90951381D01*
X161734286Y-91048143D01*
X161734286Y-91144905D01*
X161685905Y-91290048D01*
X161105334Y-91870619D01*
X161734286Y-91870619D01*
X162605143Y-91193286D02*
X162605143Y-91870619D01*
X162363239Y-90806238D02*
X162121334Y-91531952D01*
X162750286Y-91531952D01*
X163621143Y-91870619D02*
X163137334Y-91870619D01*
X163137334Y-90854619D01*
X164153334Y-90854619D02*
X164250095Y-90854619D01*
X164346857Y-90903000D01*
X164395238Y-90951381D01*
X164443619Y-91048143D01*
X164492000Y-91241667D01*
X164492000Y-91483571D01*
X164443619Y-91677095D01*
X164395238Y-91773857D01*
X164346857Y-91822238D01*
X164250095Y-91870619D01*
X164153334Y-91870619D01*
X164056572Y-91822238D01*
X164008191Y-91773857D01*
X163959810Y-91677095D01*
X163911429Y-91483571D01*
X163911429Y-91241667D01*
X163959810Y-91048143D01*
X164008191Y-90951381D01*
X164056572Y-90903000D01*
X164153334Y-90854619D01*
X165459619Y-91870619D02*
X164879048Y-91870619D01*
X165169334Y-91870619D02*
X165169334Y-90854619D01*
X165072572Y-90999762D01*
X164975810Y-91096524D01*
X164879048Y-91144905D01*
X162895429Y-89965619D02*
X162314858Y-89965619D01*
X162605144Y-89965619D02*
X162605144Y-88949619D01*
X162508382Y-89094762D01*
X162411620Y-89191524D01*
X162314858Y-89239905D01*
X163524382Y-88949619D02*
X163621143Y-88949619D01*
X163717905Y-88998000D01*
X163766286Y-89046381D01*
X163814667Y-89143143D01*
X163863048Y-89336667D01*
X163863048Y-89578571D01*
X163814667Y-89772095D01*
X163766286Y-89868857D01*
X163717905Y-89917238D01*
X163621143Y-89965619D01*
X163524382Y-89965619D01*
X163427620Y-89917238D01*
X163379239Y-89868857D01*
X163330858Y-89772095D01*
X163282477Y-89578571D01*
X163282477Y-89336667D01*
X163330858Y-89143143D01*
X163379239Y-89046381D01*
X163427620Y-88998000D01*
X163524382Y-88949619D01*
X164733905Y-89288286D02*
X164733905Y-89965619D01*
X164298477Y-89288286D02*
X164298477Y-89820476D01*
X164346858Y-89917238D01*
X164443620Y-89965619D01*
X164588762Y-89965619D01*
X164685524Y-89917238D01*
X164733905Y-89868857D01*
X165556381Y-89433429D02*
X165217715Y-89433429D01*
X165217715Y-89965619D02*
X165217715Y-88949619D01*
X165701524Y-88949619D01*
%LPC*%
D13*
X169408714Y-103058715D02*
X170170714Y-103058715D01*
X169445000Y-103058715D02*
X169408714Y-102986144D01*
X169408714Y-102841001D01*
X169445000Y-102768430D01*
X169481286Y-102732144D01*
X169553857Y-102695858D01*
X169771571Y-102695858D01*
X169844143Y-102732144D01*
X169880429Y-102768430D01*
X169916714Y-102841001D01*
X169916714Y-102986144D01*
X169880429Y-103058715D01*
X169880429Y-102079001D02*
X169916714Y-102151572D01*
X169916714Y-102296715D01*
X169880429Y-102369286D01*
X169807857Y-102405572D01*
X169517571Y-102405572D01*
X169445000Y-102369286D01*
X169408714Y-102296715D01*
X169408714Y-102151572D01*
X169445000Y-102079001D01*
X169517571Y-102042715D01*
X169590143Y-102042715D01*
X169662714Y-102405572D01*
X169408714Y-101825001D02*
X169408714Y-101534715D01*
X169154714Y-101716143D02*
X169807857Y-101716143D01*
X169880429Y-101679858D01*
X169916714Y-101607286D01*
X169916714Y-101534715D01*
X169880429Y-100990429D02*
X169916714Y-101063000D01*
X169916714Y-101208143D01*
X169880429Y-101280714D01*
X169807857Y-101317000D01*
X169517571Y-101317000D01*
X169445000Y-101280714D01*
X169408714Y-101208143D01*
X169408714Y-101063000D01*
X169445000Y-100990429D01*
X169517571Y-100954143D01*
X169590143Y-100954143D01*
X169662714Y-101317000D01*
X169916714Y-100627571D02*
X169408714Y-100627571D01*
X169553857Y-100627571D02*
X169481286Y-100591286D01*
X169445000Y-100555000D01*
X169408714Y-100482429D01*
X169408714Y-100409857D01*
X169916714Y-100155857D02*
X169408714Y-100155857D01*
X169481286Y-100155857D02*
X169445000Y-100119572D01*
X169408714Y-100047000D01*
X169408714Y-99938143D01*
X169445000Y-99865572D01*
X169517571Y-99829286D01*
X169916714Y-99829286D01*
X169517571Y-99829286D02*
X169445000Y-99793000D01*
X169408714Y-99720429D01*
X169408714Y-99611572D01*
X169445000Y-99539000D01*
X169517571Y-99502715D01*
X169916714Y-99502715D01*
X169880429Y-98813286D02*
X169916714Y-98885857D01*
X169916714Y-99031000D01*
X169880429Y-99103572D01*
X169844143Y-99139857D01*
X169771571Y-99176143D01*
X169553857Y-99176143D01*
X169481286Y-99139857D01*
X169445000Y-99103572D01*
X169408714Y-99031000D01*
X169408714Y-98885857D01*
X169445000Y-98813286D01*
X169916714Y-98377857D02*
X169880429Y-98450429D01*
X169807857Y-98486714D01*
X169154714Y-98486714D01*
X169916714Y-97761000D02*
X169517571Y-97761000D01*
X169445000Y-97797286D01*
X169408714Y-97869857D01*
X169408714Y-98015000D01*
X169445000Y-98087571D01*
X169880429Y-97761000D02*
X169916714Y-97833571D01*
X169916714Y-98015000D01*
X169880429Y-98087571D01*
X169807857Y-98123857D01*
X169735286Y-98123857D01*
X169662714Y-98087571D01*
X169626429Y-98015000D01*
X169626429Y-97833571D01*
X169590143Y-97761000D01*
X169916714Y-97398142D02*
X169408714Y-97398142D01*
X169553857Y-97398142D02*
X169481286Y-97361857D01*
X169445000Y-97325571D01*
X169408714Y-97253000D01*
X169408714Y-97180428D01*
X169916714Y-96926428D02*
X169154714Y-96926428D01*
X169626429Y-96853857D02*
X169916714Y-96636143D01*
X169408714Y-96636143D02*
X169699000Y-96926428D01*
X169880429Y-96019286D02*
X169916714Y-96091857D01*
X169916714Y-96237000D01*
X169880429Y-96309571D01*
X169807857Y-96345857D01*
X169517571Y-96345857D01*
X169445000Y-96309571D01*
X169408714Y-96237000D01*
X169408714Y-96091857D01*
X169445000Y-96019286D01*
X169517571Y-95983000D01*
X169590143Y-95983000D01*
X169662714Y-96345857D01*
X169553857Y-95184714D02*
X169517571Y-95221000D01*
X169481286Y-95293571D01*
X169481286Y-95366143D01*
X169517571Y-95438714D01*
X169553857Y-95475000D01*
X169626429Y-95511286D01*
X169699000Y-95511286D01*
X169771571Y-95475000D01*
X169807857Y-95438714D01*
X169844143Y-95366143D01*
X169844143Y-95293571D01*
X169807857Y-95221000D01*
X169771571Y-95184714D01*
X169481286Y-95184714D02*
X169771571Y-95184714D01*
X169807857Y-95148428D01*
X169807857Y-95112143D01*
X169771571Y-95039571D01*
X169699000Y-95003286D01*
X169517571Y-95003286D01*
X169408714Y-95075857D01*
X169336143Y-95184714D01*
X169299857Y-95329857D01*
X169336143Y-95475000D01*
X169408714Y-95583857D01*
X169517571Y-95656428D01*
X169662714Y-95692714D01*
X169807857Y-95656428D01*
X169916714Y-95583857D01*
X169989286Y-95475000D01*
X170025571Y-95329857D01*
X169989286Y-95184714D01*
X169916714Y-95075857D01*
X169408714Y-94350143D02*
X170025571Y-94350143D01*
X170098143Y-94386429D01*
X170134429Y-94422714D01*
X170170714Y-94495286D01*
X170170714Y-94604143D01*
X170134429Y-94676714D01*
X169880429Y-94350143D02*
X169916714Y-94422714D01*
X169916714Y-94567857D01*
X169880429Y-94640429D01*
X169844143Y-94676714D01*
X169771571Y-94713000D01*
X169553857Y-94713000D01*
X169481286Y-94676714D01*
X169445000Y-94640429D01*
X169408714Y-94567857D01*
X169408714Y-94422714D01*
X169445000Y-94350143D01*
X169916714Y-93987285D02*
X169408714Y-93987285D01*
X169481286Y-93987285D02*
X169445000Y-93951000D01*
X169408714Y-93878428D01*
X169408714Y-93769571D01*
X169445000Y-93697000D01*
X169517571Y-93660714D01*
X169916714Y-93660714D01*
X169517571Y-93660714D02*
X169445000Y-93624428D01*
X169408714Y-93551857D01*
X169408714Y-93443000D01*
X169445000Y-93370428D01*
X169517571Y-93334143D01*
X169916714Y-93334143D01*
X169916714Y-92644714D02*
X169517571Y-92644714D01*
X169445000Y-92681000D01*
X169408714Y-92753571D01*
X169408714Y-92898714D01*
X169445000Y-92971285D01*
X169880429Y-92644714D02*
X169916714Y-92717285D01*
X169916714Y-92898714D01*
X169880429Y-92971285D01*
X169807857Y-93007571D01*
X169735286Y-93007571D01*
X169662714Y-92971285D01*
X169626429Y-92898714D01*
X169626429Y-92717285D01*
X169590143Y-92644714D01*
X169916714Y-92281856D02*
X169408714Y-92281856D01*
X169154714Y-92281856D02*
X169191000Y-92318142D01*
X169227286Y-92281856D01*
X169191000Y-92245571D01*
X169154714Y-92281856D01*
X169227286Y-92281856D01*
X169916714Y-91810142D02*
X169880429Y-91882714D01*
X169807857Y-91918999D01*
X169154714Y-91918999D01*
X169844143Y-91519856D02*
X169880429Y-91483571D01*
X169916714Y-91519856D01*
X169880429Y-91556142D01*
X169844143Y-91519856D01*
X169916714Y-91519856D01*
X169880429Y-90830428D02*
X169916714Y-90902999D01*
X169916714Y-91048142D01*
X169880429Y-91120714D01*
X169844143Y-91156999D01*
X169771571Y-91193285D01*
X169553857Y-91193285D01*
X169481286Y-91156999D01*
X169445000Y-91120714D01*
X169408714Y-91048142D01*
X169408714Y-90902999D01*
X169445000Y-90830428D01*
X169916714Y-90394999D02*
X169880429Y-90467571D01*
X169844143Y-90503856D01*
X169771571Y-90540142D01*
X169553857Y-90540142D01*
X169481286Y-90503856D01*
X169445000Y-90467571D01*
X169408714Y-90394999D01*
X169408714Y-90286142D01*
X169445000Y-90213571D01*
X169481286Y-90177285D01*
X169553857Y-90140999D01*
X169771571Y-90140999D01*
X169844143Y-90177285D01*
X169880429Y-90213571D01*
X169916714Y-90286142D01*
X169916714Y-90394999D01*
X169916714Y-89814427D02*
X169408714Y-89814427D01*
X169481286Y-89814427D02*
X169445000Y-89778142D01*
X169408714Y-89705570D01*
X169408714Y-89596713D01*
X169445000Y-89524142D01*
X169517571Y-89487856D01*
X169916714Y-89487856D01*
X169517571Y-89487856D02*
X169445000Y-89451570D01*
X169408714Y-89378999D01*
X169408714Y-89270142D01*
X169445000Y-89197570D01*
X169517571Y-89161285D01*
X169916714Y-89161285D01*
D14*
X158529000Y-106276000D02*
X158689000Y-105756000D01*
X158569000Y-106056000D02*
X158529000Y-106276000D01*
X158449000Y-105776000D02*
X158569000Y-106056000D01*
X158229000Y-105476000D02*
X158449000Y-105776000D01*
X158139000Y-105046000D02*
X158229000Y-105476000D01*
X158509000Y-105056000D02*
X158509000Y-104886000D01*
X158529000Y-105156000D02*
X158509000Y-105056000D01*
X158479000Y-105246000D02*
X158529000Y-105156000D01*
X158359000Y-105276000D02*
X158479000Y-105246000D01*
X158239000Y-105146000D02*
X158359000Y-105276000D01*
X158169000Y-104956000D02*
X158239000Y-105146000D01*
X158689000Y-104956000D02*
X158599000Y-104826000D01*
X158819000Y-104986000D02*
X158689000Y-104956000D01*
X158929000Y-104946000D02*
X158819000Y-104986000D01*
X158969000Y-104846000D02*
X158929000Y-104946000D01*
X158969000Y-104706000D02*
X158969000Y-104846000D01*
X158869000Y-104566000D02*
X158969000Y-104706000D01*
X158689000Y-104456000D02*
X158869000Y-104566000D01*
X158789000Y-104426000D02*
X158689000Y-104426000D01*
X158939000Y-104416000D02*
X158789000Y-104426000D01*
X159039000Y-104346000D02*
X158939000Y-104416000D01*
X159019000Y-104196000D02*
X159039000Y-104346000D01*
X158909000Y-104096000D02*
X159019000Y-104196000D01*
X158539000Y-104106000D02*
X158909000Y-104096000D01*
X158659000Y-103976000D02*
X158569000Y-104116000D01*
X158679000Y-103866000D02*
X158659000Y-103976000D01*
X158629000Y-103756000D02*
X158679000Y-103866000D01*
X158459000Y-103726000D02*
X158629000Y-103756000D01*
X158299000Y-103786000D02*
X158459000Y-103726000D01*
X158209000Y-104056000D02*
X158299000Y-103786000D01*
X158109000Y-104966000D02*
X158099000Y-104936000D01*
X158139000Y-104946000D02*
X158109000Y-104966000D01*
X158119000Y-104966000D02*
X158139000Y-104946000D01*
X158099000Y-105076000D02*
X158119000Y-104966000D01*
X158039000Y-105186000D02*
X158099000Y-105076000D01*
X157919000Y-105226000D02*
X158039000Y-105186000D01*
X157809000Y-105186000D02*
X157919000Y-105226000D01*
X157799000Y-104996000D02*
X157809000Y-105186000D01*
X157879000Y-104796000D02*
X157799000Y-104996000D01*
X157609000Y-104836000D02*
X157859000Y-104776000D01*
X157489000Y-104756000D02*
X157609000Y-104836000D01*
X157449000Y-104626000D02*
X157489000Y-104756000D01*
X157539000Y-104476000D02*
X157449000Y-104626000D01*
X157809000Y-104426000D02*
X157539000Y-104476000D01*
X157589000Y-104306000D02*
X157799000Y-104356000D01*
X157479000Y-104136000D02*
X157589000Y-104306000D01*
X157589000Y-103946000D02*
X157479000Y-104136000D01*
X157869000Y-103876000D02*
X157589000Y-103946000D01*
X158139000Y-104016000D02*
X157869000Y-103876000D01*
D15*
X158309000Y-104686000D02*
X158429000Y-104596000D01*
X158179000Y-104696000D02*
X158309000Y-104686000D01*
X158059000Y-104626000D02*
X158179000Y-104696000D01*
D12*
X158140623Y-104406000D02*
G75*
G03X158140623Y-104406000I-31623J0D01*
G01*
D13*
X158659000Y-104486000D02*
G75*
G03X158659000Y-104486000I-410000J0D01*
G01*
D12*
X158420623Y-104406000D02*
G75*
G03X158420623Y-104406000I-31623J0D01*
G01*
D16*
X158599200Y-93493800D03*
D17*
X158599200Y-96033800D03*
D18*
X161139200Y-93493800D03*
X161139200Y-96033800D03*
X163679200Y-93493800D03*
X163679200Y-96033800D03*
X166219200Y-93493800D03*
X166219200Y-96033800D03*
D17*
X161190000Y-102460000D03*
D18*
X161190000Y-99920000D03*
X163730000Y-102460000D03*
X163730000Y-99920000D03*
X166270000Y-102460000D03*
X166270000Y-99920000D03*
D19*
X166397000Y-105317500D03*
D20*
X163857000Y-105317500D03*
D21*
X158543000Y-89506000D03*
X161043000Y-89506000D03*
M02*
