G04 #@! TF.FileFunction,Copper,L2,Bot,Signal*
%FSLAX46Y46*%
G04 Gerber Fmt 4.6, Leading zero omitted, Abs format (unit mm)*
G04 Created by KiCad (PCBNEW 4.0.1-stable) date 03/05/2016 22:29:02*
%MOMM*%
G01*
G04 APERTURE LIST*
%ADD10C,0.100000*%
%ADD11C,1.727200*%
%ADD12R,1.727200X1.727200*%
%ADD13O,1.727200X1.727200*%
%ADD14R,1.250000X1.500000*%
%ADD15R,2.032000X2.032000*%
%ADD16O,2.032000X2.032000*%
%ADD17R,2.501900X1.000760*%
%ADD18R,4.000500X1.998980*%
%ADD19C,0.304800*%
%ADD20C,0.406400*%
%ADD21C,0.254000*%
G04 APERTURE END LIST*
D10*
D11*
X158599200Y-93493800D03*
D12*
X158599200Y-96033800D03*
D13*
X161139200Y-93493800D03*
X161139200Y-96033800D03*
X163679200Y-93493800D03*
X163679200Y-96033800D03*
X166219200Y-93493800D03*
X166219200Y-96033800D03*
D14*
X169572000Y-92026000D03*
X169572000Y-89526000D03*
X159158000Y-88510000D03*
X159158000Y-91010000D03*
D12*
X161190000Y-102460000D03*
D13*
X161190000Y-99920000D03*
X163730000Y-102460000D03*
X163730000Y-99920000D03*
X166270000Y-102460000D03*
X166270000Y-99920000D03*
D15*
X166397000Y-105317500D03*
D16*
X163857000Y-105317500D03*
D17*
X161885960Y-91261140D03*
X161885960Y-89760000D03*
X161885960Y-88258860D03*
D18*
X165838200Y-89760000D03*
D10*
G36*
X163114050Y-89259620D02*
X163863350Y-88759240D01*
X163863350Y-90760760D01*
X163114050Y-90260380D01*
X163114050Y-89259620D01*
X163114050Y-89259620D01*
G37*
D14*
X169572000Y-98269000D03*
X169572000Y-100769000D03*
D19*
X169572000Y-89526000D02*
X170501800Y-89526000D01*
X170842000Y-100428000D02*
X170501000Y-100769000D01*
X170501800Y-89526000D02*
X170842000Y-89866200D01*
X170842000Y-89866200D02*
X170842000Y-100428000D01*
X170501000Y-100769000D02*
X169572000Y-100769000D01*
X158599200Y-96033800D02*
X159297190Y-96033800D01*
X159297190Y-96033800D02*
X160592589Y-94738401D01*
X160592589Y-94738401D02*
X166816609Y-94738401D01*
X166816609Y-94738401D02*
X167463801Y-94091209D01*
X167463801Y-94091209D02*
X167463801Y-92223801D01*
X167463801Y-92223801D02*
X167215210Y-91975210D01*
X167215210Y-91975210D02*
X164155780Y-91975210D01*
X164155780Y-91975210D02*
X163441710Y-91261140D01*
X163441710Y-91261140D02*
X161885960Y-91261140D01*
X158599200Y-96033800D02*
X158599200Y-103488700D01*
X162015500Y-106905000D02*
X167984500Y-106905000D01*
X158599200Y-103488700D02*
X162015500Y-106905000D01*
X167984500Y-106905000D02*
X169572000Y-105317500D01*
X169572000Y-101823800D02*
X169572000Y-100769000D01*
X169572000Y-105317500D02*
X169572000Y-101823800D01*
X161885960Y-91261140D02*
X159409140Y-91261140D01*
X159409140Y-91261140D02*
X159158000Y-91010000D01*
X167501901Y-100783599D02*
X167516500Y-100769000D01*
X167516500Y-100769000D02*
X169572000Y-100769000D01*
X166270000Y-99920000D02*
X167133599Y-100783599D01*
X167133599Y-100783599D02*
X167501901Y-100783599D01*
D20*
X161885960Y-88258860D02*
X159409140Y-88258860D01*
X159409140Y-88258860D02*
X159158000Y-88510000D01*
X159158000Y-88510000D02*
X158228200Y-88510000D01*
X158228200Y-88510000D02*
X157735601Y-89002599D01*
X157735601Y-89002599D02*
X157735601Y-92630201D01*
X157735601Y-92630201D02*
X158599200Y-93493800D01*
D19*
X161190000Y-102460000D02*
X160555000Y-102460000D01*
X160555000Y-102460000D02*
X159602500Y-101507500D01*
X159602500Y-101507500D02*
X159602500Y-99477530D01*
X159602500Y-99477530D02*
X161573030Y-97507000D01*
X161573030Y-97507000D02*
X164746000Y-97507000D01*
X164746000Y-97507000D02*
X165355601Y-96897399D01*
X165355601Y-96897399D02*
X166219200Y-96033800D01*
D20*
X169572000Y-98269000D02*
X169572000Y-92026000D01*
X169572000Y-92026000D02*
X168540600Y-92026000D01*
X168540600Y-92026000D02*
X166274600Y-89760000D01*
X166274600Y-89760000D02*
X165838200Y-89760000D01*
X163488700Y-89760000D02*
X161885960Y-89760000D01*
X161885960Y-89760000D02*
X165838200Y-89760000D01*
X161190000Y-99920000D02*
X162841000Y-98269000D01*
X162841000Y-98269000D02*
X169572000Y-98269000D01*
D21*
G36*
X157109677Y-93173171D02*
X157100861Y-93194402D01*
X157100341Y-93790582D01*
X157328008Y-94341580D01*
X157547034Y-94560988D01*
X157375902Y-94631873D01*
X157197273Y-94810501D01*
X157100600Y-95043890D01*
X157100600Y-95748050D01*
X157259350Y-95906800D01*
X158472200Y-95906800D01*
X158472200Y-95886800D01*
X158726200Y-95886800D01*
X158726200Y-95906800D01*
X158746200Y-95906800D01*
X158746200Y-96160800D01*
X158726200Y-96160800D01*
X158726200Y-97373650D01*
X158884950Y-97532400D01*
X159589109Y-97532400D01*
X159822498Y-97435727D01*
X160001127Y-97257099D01*
X160064844Y-97103274D01*
X160536352Y-97418326D01*
X160546194Y-97420284D01*
X159045724Y-98920754D01*
X158875037Y-99176205D01*
X158815100Y-99477530D01*
X158815100Y-101507500D01*
X158875037Y-101808825D01*
X159045724Y-102064276D01*
X159678960Y-102697512D01*
X159678960Y-103323600D01*
X159723238Y-103558917D01*
X159862310Y-103775041D01*
X160074510Y-103920031D01*
X160326400Y-103971040D01*
X162053600Y-103971040D01*
X162288917Y-103926762D01*
X162505041Y-103787690D01*
X162650031Y-103575490D01*
X162658908Y-103531655D01*
X163120824Y-103840298D01*
X162657222Y-104150067D01*
X162299330Y-104685690D01*
X162173655Y-105317500D01*
X162299330Y-105949310D01*
X162657222Y-106484933D01*
X163173651Y-106830000D01*
X157074000Y-106830000D01*
X157074000Y-96319550D01*
X157100600Y-96319550D01*
X157100600Y-97023710D01*
X157197273Y-97257099D01*
X157375902Y-97435727D01*
X157609291Y-97532400D01*
X158313450Y-97532400D01*
X158472200Y-97373650D01*
X158472200Y-96160800D01*
X157259350Y-96160800D01*
X157100600Y-96319550D01*
X157074000Y-96319550D01*
X157074000Y-93119776D01*
X157109677Y-93173171D01*
X157109677Y-93173171D01*
G37*
X157109677Y-93173171D02*
X157100861Y-93194402D01*
X157100341Y-93790582D01*
X157328008Y-94341580D01*
X157547034Y-94560988D01*
X157375902Y-94631873D01*
X157197273Y-94810501D01*
X157100600Y-95043890D01*
X157100600Y-95748050D01*
X157259350Y-95906800D01*
X158472200Y-95906800D01*
X158472200Y-95886800D01*
X158726200Y-95886800D01*
X158726200Y-95906800D01*
X158746200Y-95906800D01*
X158746200Y-96160800D01*
X158726200Y-96160800D01*
X158726200Y-97373650D01*
X158884950Y-97532400D01*
X159589109Y-97532400D01*
X159822498Y-97435727D01*
X160001127Y-97257099D01*
X160064844Y-97103274D01*
X160536352Y-97418326D01*
X160546194Y-97420284D01*
X159045724Y-98920754D01*
X158875037Y-99176205D01*
X158815100Y-99477530D01*
X158815100Y-101507500D01*
X158875037Y-101808825D01*
X159045724Y-102064276D01*
X159678960Y-102697512D01*
X159678960Y-103323600D01*
X159723238Y-103558917D01*
X159862310Y-103775041D01*
X160074510Y-103920031D01*
X160326400Y-103971040D01*
X162053600Y-103971040D01*
X162288917Y-103926762D01*
X162505041Y-103787690D01*
X162650031Y-103575490D01*
X162658908Y-103531655D01*
X163120824Y-103840298D01*
X162657222Y-104150067D01*
X162299330Y-104685690D01*
X162173655Y-105317500D01*
X162299330Y-105949310D01*
X162657222Y-106484933D01*
X163173651Y-106830000D01*
X157074000Y-106830000D01*
X157074000Y-96319550D01*
X157100600Y-96319550D01*
X157100600Y-97023710D01*
X157197273Y-97257099D01*
X157375902Y-97435727D01*
X157609291Y-97532400D01*
X158313450Y-97532400D01*
X158472200Y-97373650D01*
X158472200Y-96160800D01*
X157259350Y-96160800D01*
X157100600Y-96319550D01*
X157074000Y-96319550D01*
X157074000Y-93119776D01*
X157109677Y-93173171D01*
G36*
X170894000Y-106830000D02*
X167814074Y-106830000D01*
X167864441Y-106797590D01*
X168009431Y-106585390D01*
X168060440Y-106333500D01*
X168060440Y-104301500D01*
X168016162Y-104066183D01*
X167877090Y-103850059D01*
X167664890Y-103705069D01*
X167413000Y-103654060D01*
X167157900Y-103654060D01*
X167359029Y-103519670D01*
X167683885Y-103033489D01*
X167797959Y-102460000D01*
X167683885Y-101886511D01*
X167359029Y-101400330D01*
X167035772Y-101184336D01*
X167158490Y-101126821D01*
X167224273Y-101054750D01*
X168312000Y-101054750D01*
X168312000Y-101645309D01*
X168408673Y-101878698D01*
X168587301Y-102057327D01*
X168820690Y-102154000D01*
X169286250Y-102154000D01*
X169445000Y-101995250D01*
X169445000Y-100896000D01*
X169699000Y-100896000D01*
X169699000Y-101995250D01*
X169857750Y-102154000D01*
X170323310Y-102154000D01*
X170556699Y-102057327D01*
X170735327Y-101878698D01*
X170832000Y-101645309D01*
X170832000Y-101054750D01*
X170673250Y-100896000D01*
X169699000Y-100896000D01*
X169445000Y-100896000D01*
X168470750Y-100896000D01*
X168312000Y-101054750D01*
X167224273Y-101054750D01*
X167552688Y-100694947D01*
X167724958Y-100279026D01*
X167603817Y-100047000D01*
X166397000Y-100047000D01*
X166397000Y-100067000D01*
X166143000Y-100067000D01*
X166143000Y-100047000D01*
X166123000Y-100047000D01*
X166123000Y-99793000D01*
X166143000Y-99793000D01*
X166143000Y-99773000D01*
X166397000Y-99773000D01*
X166397000Y-99793000D01*
X167603817Y-99793000D01*
X167724958Y-99560974D01*
X167552688Y-99145053D01*
X167518137Y-99107200D01*
X168316156Y-99107200D01*
X168343838Y-99254317D01*
X168482910Y-99470441D01*
X168551006Y-99516969D01*
X168408673Y-99659302D01*
X168312000Y-99892691D01*
X168312000Y-100483250D01*
X168470750Y-100642000D01*
X169445000Y-100642000D01*
X169445000Y-100622000D01*
X169699000Y-100622000D01*
X169699000Y-100642000D01*
X170673250Y-100642000D01*
X170832000Y-100483250D01*
X170832000Y-99892691D01*
X170735327Y-99659302D01*
X170594090Y-99518064D01*
X170648441Y-99483090D01*
X170793431Y-99270890D01*
X170844440Y-99019000D01*
X170844440Y-97519000D01*
X170800162Y-97283683D01*
X170661090Y-97067559D01*
X170448890Y-96922569D01*
X170410200Y-96914734D01*
X170410200Y-93383324D01*
X170432317Y-93379162D01*
X170648441Y-93240090D01*
X170793431Y-93027890D01*
X170844440Y-92776000D01*
X170844440Y-91276000D01*
X170800162Y-91040683D01*
X170661090Y-90824559D01*
X170592994Y-90778031D01*
X170735327Y-90635698D01*
X170832000Y-90402309D01*
X170832000Y-89811750D01*
X170673250Y-89653000D01*
X169699000Y-89653000D01*
X169699000Y-89673000D01*
X169445000Y-89673000D01*
X169445000Y-89653000D01*
X169425000Y-89653000D01*
X169425000Y-89399000D01*
X169445000Y-89399000D01*
X169445000Y-88299750D01*
X169699000Y-88299750D01*
X169699000Y-89399000D01*
X170673250Y-89399000D01*
X170832000Y-89240250D01*
X170832000Y-88649691D01*
X170735327Y-88416302D01*
X170556699Y-88237673D01*
X170323310Y-88141000D01*
X169857750Y-88141000D01*
X169699000Y-88299750D01*
X169445000Y-88299750D01*
X169286250Y-88141000D01*
X168820690Y-88141000D01*
X168587301Y-88237673D01*
X168408673Y-88416302D01*
X168394132Y-88451407D01*
X168302540Y-88309069D01*
X168090340Y-88164079D01*
X167838450Y-88113070D01*
X163837950Y-88113070D01*
X163784350Y-88123156D01*
X163784350Y-87930000D01*
X170894000Y-87930000D01*
X170894000Y-106830000D01*
X170894000Y-106830000D01*
G37*
X170894000Y-106830000D02*
X167814074Y-106830000D01*
X167864441Y-106797590D01*
X168009431Y-106585390D01*
X168060440Y-106333500D01*
X168060440Y-104301500D01*
X168016162Y-104066183D01*
X167877090Y-103850059D01*
X167664890Y-103705069D01*
X167413000Y-103654060D01*
X167157900Y-103654060D01*
X167359029Y-103519670D01*
X167683885Y-103033489D01*
X167797959Y-102460000D01*
X167683885Y-101886511D01*
X167359029Y-101400330D01*
X167035772Y-101184336D01*
X167158490Y-101126821D01*
X167224273Y-101054750D01*
X168312000Y-101054750D01*
X168312000Y-101645309D01*
X168408673Y-101878698D01*
X168587301Y-102057327D01*
X168820690Y-102154000D01*
X169286250Y-102154000D01*
X169445000Y-101995250D01*
X169445000Y-100896000D01*
X169699000Y-100896000D01*
X169699000Y-101995250D01*
X169857750Y-102154000D01*
X170323310Y-102154000D01*
X170556699Y-102057327D01*
X170735327Y-101878698D01*
X170832000Y-101645309D01*
X170832000Y-101054750D01*
X170673250Y-100896000D01*
X169699000Y-100896000D01*
X169445000Y-100896000D01*
X168470750Y-100896000D01*
X168312000Y-101054750D01*
X167224273Y-101054750D01*
X167552688Y-100694947D01*
X167724958Y-100279026D01*
X167603817Y-100047000D01*
X166397000Y-100047000D01*
X166397000Y-100067000D01*
X166143000Y-100067000D01*
X166143000Y-100047000D01*
X166123000Y-100047000D01*
X166123000Y-99793000D01*
X166143000Y-99793000D01*
X166143000Y-99773000D01*
X166397000Y-99773000D01*
X166397000Y-99793000D01*
X167603817Y-99793000D01*
X167724958Y-99560974D01*
X167552688Y-99145053D01*
X167518137Y-99107200D01*
X168316156Y-99107200D01*
X168343838Y-99254317D01*
X168482910Y-99470441D01*
X168551006Y-99516969D01*
X168408673Y-99659302D01*
X168312000Y-99892691D01*
X168312000Y-100483250D01*
X168470750Y-100642000D01*
X169445000Y-100642000D01*
X169445000Y-100622000D01*
X169699000Y-100622000D01*
X169699000Y-100642000D01*
X170673250Y-100642000D01*
X170832000Y-100483250D01*
X170832000Y-99892691D01*
X170735327Y-99659302D01*
X170594090Y-99518064D01*
X170648441Y-99483090D01*
X170793431Y-99270890D01*
X170844440Y-99019000D01*
X170844440Y-97519000D01*
X170800162Y-97283683D01*
X170661090Y-97067559D01*
X170448890Y-96922569D01*
X170410200Y-96914734D01*
X170410200Y-93383324D01*
X170432317Y-93379162D01*
X170648441Y-93240090D01*
X170793431Y-93027890D01*
X170844440Y-92776000D01*
X170844440Y-91276000D01*
X170800162Y-91040683D01*
X170661090Y-90824559D01*
X170592994Y-90778031D01*
X170735327Y-90635698D01*
X170832000Y-90402309D01*
X170832000Y-89811750D01*
X170673250Y-89653000D01*
X169699000Y-89653000D01*
X169699000Y-89673000D01*
X169445000Y-89673000D01*
X169445000Y-89653000D01*
X169425000Y-89653000D01*
X169425000Y-89399000D01*
X169445000Y-89399000D01*
X169445000Y-88299750D01*
X169699000Y-88299750D01*
X169699000Y-89399000D01*
X170673250Y-89399000D01*
X170832000Y-89240250D01*
X170832000Y-88649691D01*
X170735327Y-88416302D01*
X170556699Y-88237673D01*
X170323310Y-88141000D01*
X169857750Y-88141000D01*
X169699000Y-88299750D01*
X169445000Y-88299750D01*
X169286250Y-88141000D01*
X168820690Y-88141000D01*
X168587301Y-88237673D01*
X168408673Y-88416302D01*
X168394132Y-88451407D01*
X168302540Y-88309069D01*
X168090340Y-88164079D01*
X167838450Y-88113070D01*
X163837950Y-88113070D01*
X163784350Y-88123156D01*
X163784350Y-87930000D01*
X170894000Y-87930000D01*
X170894000Y-106830000D01*
G36*
X163837950Y-91406930D02*
X163842250Y-91406930D01*
X163845463Y-91407953D01*
X163851346Y-91406930D01*
X166736136Y-91406930D01*
X167947903Y-92618697D01*
X168219834Y-92800396D01*
X168307429Y-92817820D01*
X168343838Y-93011317D01*
X168482910Y-93227441D01*
X168695110Y-93372431D01*
X168733800Y-93380266D01*
X168733800Y-96911676D01*
X168711683Y-96915838D01*
X168495559Y-97054910D01*
X168350569Y-97267110D01*
X168317421Y-97430800D01*
X166759337Y-97430800D01*
X166822048Y-97418326D01*
X167308229Y-97093470D01*
X167633085Y-96607289D01*
X167747159Y-96033800D01*
X167633085Y-95460311D01*
X167308229Y-94974130D01*
X166993448Y-94763800D01*
X167308229Y-94553470D01*
X167633085Y-94067289D01*
X167747159Y-93493800D01*
X167633085Y-92920311D01*
X167308229Y-92434130D01*
X166822048Y-92109274D01*
X166248559Y-91995200D01*
X166189841Y-91995200D01*
X165616352Y-92109274D01*
X165130171Y-92434130D01*
X164949200Y-92704972D01*
X164768229Y-92434130D01*
X164282048Y-92109274D01*
X163725999Y-91998669D01*
X163771910Y-91887829D01*
X163771910Y-91546890D01*
X163613162Y-91388142D01*
X163745172Y-91388142D01*
X163837950Y-91406930D01*
X163837950Y-91406930D01*
G37*
X163837950Y-91406930D02*
X163842250Y-91406930D01*
X163845463Y-91407953D01*
X163851346Y-91406930D01*
X166736136Y-91406930D01*
X167947903Y-92618697D01*
X168219834Y-92800396D01*
X168307429Y-92817820D01*
X168343838Y-93011317D01*
X168482910Y-93227441D01*
X168695110Y-93372431D01*
X168733800Y-93380266D01*
X168733800Y-96911676D01*
X168711683Y-96915838D01*
X168495559Y-97054910D01*
X168350569Y-97267110D01*
X168317421Y-97430800D01*
X166759337Y-97430800D01*
X166822048Y-97418326D01*
X167308229Y-97093470D01*
X167633085Y-96607289D01*
X167747159Y-96033800D01*
X167633085Y-95460311D01*
X167308229Y-94974130D01*
X166993448Y-94763800D01*
X167308229Y-94553470D01*
X167633085Y-94067289D01*
X167747159Y-93493800D01*
X167633085Y-92920311D01*
X167308229Y-92434130D01*
X166822048Y-92109274D01*
X166248559Y-91995200D01*
X166189841Y-91995200D01*
X165616352Y-92109274D01*
X165130171Y-92434130D01*
X164949200Y-92704972D01*
X164768229Y-92434130D01*
X164282048Y-92109274D01*
X163725999Y-91998669D01*
X163771910Y-91887829D01*
X163771910Y-91546890D01*
X163613162Y-91388142D01*
X163745172Y-91388142D01*
X163837950Y-91406930D01*
G36*
X162012960Y-91134140D02*
X162032960Y-91134140D01*
X162032960Y-91388140D01*
X162012960Y-91388140D01*
X162012960Y-91408140D01*
X161758960Y-91408140D01*
X161758960Y-91388140D01*
X161738960Y-91388140D01*
X161738960Y-91134140D01*
X161758960Y-91134140D01*
X161758960Y-91114140D01*
X162012960Y-91114140D01*
X162012960Y-91134140D01*
X162012960Y-91134140D01*
G37*
X162012960Y-91134140D02*
X162032960Y-91134140D01*
X162032960Y-91388140D01*
X162012960Y-91388140D01*
X162012960Y-91408140D01*
X161758960Y-91408140D01*
X161758960Y-91388140D01*
X161738960Y-91388140D01*
X161738960Y-91134140D01*
X161758960Y-91134140D01*
X161758960Y-91114140D01*
X162012960Y-91114140D01*
X162012960Y-91134140D01*
G36*
X159285000Y-90883000D02*
X159305000Y-90883000D01*
X159305000Y-91137000D01*
X159285000Y-91137000D01*
X159285000Y-91157000D01*
X159031000Y-91157000D01*
X159031000Y-91137000D01*
X159011000Y-91137000D01*
X159011000Y-90883000D01*
X159031000Y-90883000D01*
X159031000Y-90863000D01*
X159285000Y-90863000D01*
X159285000Y-90883000D01*
X159285000Y-90883000D01*
G37*
X159285000Y-90883000D02*
X159305000Y-90883000D01*
X159305000Y-91137000D01*
X159285000Y-91137000D01*
X159285000Y-91157000D01*
X159031000Y-91157000D01*
X159031000Y-91137000D01*
X159011000Y-91137000D01*
X159011000Y-90883000D01*
X159031000Y-90883000D01*
X159031000Y-90863000D01*
X159285000Y-90863000D01*
X159285000Y-90883000D01*
M02*
