G04 #@! TF.FileFunction,Copper,L1,Top,Signal*
%FSLAX46Y46*%
G04 Gerber Fmt 4.6, Leading zero omitted, Abs format (unit mm)*
G04 Created by KiCad (PCBNEW 4.0.1-stable) date 03/05/2016 22:29:02*
%MOMM*%
G01*
G04 APERTURE LIST*
%ADD10C,0.100000*%
%ADD11C,1.727200*%
%ADD12R,1.727200X1.727200*%
%ADD13O,1.727200X1.727200*%
%ADD14R,2.032000X2.032000*%
%ADD15O,2.032000X2.032000*%
%ADD16R,1.500000X1.250000*%
%ADD17C,0.304800*%
%ADD18C,0.406400*%
%ADD19C,0.254000*%
G04 APERTURE END LIST*
D10*
D11*
X158599200Y-93493800D03*
D12*
X158599200Y-96033800D03*
D13*
X161139200Y-93493800D03*
X161139200Y-96033800D03*
X163679200Y-93493800D03*
X163679200Y-96033800D03*
X166219200Y-93493800D03*
X166219200Y-96033800D03*
D12*
X161190000Y-102460000D03*
D13*
X161190000Y-99920000D03*
X163730000Y-102460000D03*
X163730000Y-99920000D03*
X166270000Y-102460000D03*
X166270000Y-99920000D03*
D14*
X166397000Y-105317500D03*
D15*
X163857000Y-105317500D03*
D16*
X158543000Y-89506000D03*
X161043000Y-89506000D03*
D17*
X158599200Y-96033800D02*
X157430800Y-96033800D01*
X157430800Y-96033800D02*
X157227599Y-95830599D01*
X157227599Y-95830599D02*
X157227599Y-88531999D01*
X157227599Y-88531999D02*
X157650598Y-88109000D01*
X157650598Y-88109000D02*
X160682000Y-88109000D01*
X160682000Y-88109000D02*
X161043000Y-88470000D01*
X161043000Y-88470000D02*
X161043000Y-89506000D01*
D18*
X158599200Y-93493800D02*
X158599200Y-90064800D01*
X158599200Y-90064800D02*
X158650000Y-90014000D01*
D17*
X163730000Y-102460000D02*
X164974601Y-101215399D01*
X164974601Y-101215399D02*
X164974601Y-97329201D01*
X164974601Y-97329201D02*
X164542799Y-96897399D01*
X164542799Y-96897399D02*
X163679200Y-96033800D01*
X163730000Y-99920000D02*
X163730000Y-98698686D01*
X163730000Y-98698686D02*
X162434599Y-97403285D01*
X162434599Y-97403285D02*
X162434599Y-94738401D01*
X162434599Y-94738401D02*
X162815601Y-94357399D01*
X162815601Y-94357399D02*
X163679200Y-93493800D01*
X166397000Y-105317500D02*
X167794000Y-103920500D01*
X167794000Y-103920500D02*
X167794000Y-92617500D01*
X167794000Y-92617500D02*
X167032000Y-91855500D01*
X167032000Y-91855500D02*
X162777500Y-91855500D01*
X162777500Y-91855500D02*
X162002799Y-92630201D01*
X162002799Y-92630201D02*
X161139200Y-93493800D01*
X163857000Y-105317500D02*
X161634498Y-105317500D01*
X161634498Y-105317500D02*
X159602500Y-103285502D01*
X159602500Y-103285502D02*
X159602500Y-97570500D01*
X159602500Y-97570500D02*
X160275601Y-96897399D01*
X160275601Y-96897399D02*
X161139200Y-96033800D01*
D19*
G36*
X170894000Y-106830000D02*
X167814074Y-106830000D01*
X167864441Y-106797590D01*
X168009431Y-106585390D01*
X168060440Y-106333500D01*
X168060440Y-104767612D01*
X168350776Y-104477276D01*
X168521463Y-104221825D01*
X168581400Y-103920500D01*
X168581400Y-92617500D01*
X168521463Y-92316175D01*
X168350776Y-92060724D01*
X167588776Y-91298724D01*
X167333325Y-91128037D01*
X167032000Y-91068100D01*
X162777500Y-91068100D01*
X162476175Y-91128037D01*
X162220724Y-91298724D01*
X161465235Y-92054213D01*
X161168559Y-91995200D01*
X161109841Y-91995200D01*
X160536352Y-92109274D01*
X160050171Y-92434130D01*
X159884988Y-92681344D01*
X159870392Y-92646020D01*
X159449197Y-92224090D01*
X159437400Y-92219191D01*
X159437400Y-90751269D01*
X159528317Y-90734162D01*
X159744441Y-90595090D01*
X159790969Y-90526994D01*
X159933302Y-90669327D01*
X160166691Y-90766000D01*
X160757250Y-90766000D01*
X160916000Y-90607250D01*
X160916000Y-89633000D01*
X161170000Y-89633000D01*
X161170000Y-90607250D01*
X161328750Y-90766000D01*
X161919309Y-90766000D01*
X162152698Y-90669327D01*
X162331327Y-90490699D01*
X162428000Y-90257310D01*
X162428000Y-89791750D01*
X162269250Y-89633000D01*
X161170000Y-89633000D01*
X160916000Y-89633000D01*
X160896000Y-89633000D01*
X160896000Y-89379000D01*
X160916000Y-89379000D01*
X160916000Y-88404750D01*
X161170000Y-88404750D01*
X161170000Y-89379000D01*
X162269250Y-89379000D01*
X162428000Y-89220250D01*
X162428000Y-88754690D01*
X162331327Y-88521301D01*
X162152698Y-88342673D01*
X161919309Y-88246000D01*
X161328750Y-88246000D01*
X161170000Y-88404750D01*
X160916000Y-88404750D01*
X160757250Y-88246000D01*
X160166691Y-88246000D01*
X159933302Y-88342673D01*
X159792064Y-88483910D01*
X159757090Y-88429559D01*
X159544890Y-88284569D01*
X159293000Y-88233560D01*
X157793000Y-88233560D01*
X157557683Y-88277838D01*
X157341559Y-88416910D01*
X157196569Y-88629110D01*
X157145560Y-88881000D01*
X157145560Y-90131000D01*
X157189838Y-90366317D01*
X157328910Y-90582441D01*
X157541110Y-90727431D01*
X157761000Y-90771960D01*
X157761000Y-92218650D01*
X157751420Y-92222608D01*
X157329490Y-92643803D01*
X157100861Y-93194402D01*
X157100341Y-93790582D01*
X157328008Y-94341580D01*
X157547034Y-94560988D01*
X157375902Y-94631873D01*
X157197273Y-94810501D01*
X157100600Y-95043890D01*
X157100600Y-95748050D01*
X157259350Y-95906800D01*
X158472200Y-95906800D01*
X158472200Y-95886800D01*
X158726200Y-95886800D01*
X158726200Y-95906800D01*
X158746200Y-95906800D01*
X158746200Y-96160800D01*
X158726200Y-96160800D01*
X158726200Y-97373650D01*
X158833010Y-97480460D01*
X158815100Y-97570500D01*
X158815100Y-103285502D01*
X158875037Y-103586827D01*
X159045724Y-103842278D01*
X161077722Y-105874276D01*
X161333173Y-106044963D01*
X161634498Y-106104900D01*
X162403292Y-106104900D01*
X162657222Y-106484933D01*
X163173651Y-106830000D01*
X157074000Y-106830000D01*
X157074000Y-96319550D01*
X157100600Y-96319550D01*
X157100600Y-97023710D01*
X157197273Y-97257099D01*
X157375902Y-97435727D01*
X157609291Y-97532400D01*
X158313450Y-97532400D01*
X158472200Y-97373650D01*
X158472200Y-96160800D01*
X157259350Y-96160800D01*
X157100600Y-96319550D01*
X157074000Y-96319550D01*
X157074000Y-87930000D01*
X170894000Y-87930000D01*
X170894000Y-106830000D01*
X170894000Y-106830000D01*
G37*
X170894000Y-106830000D02*
X167814074Y-106830000D01*
X167864441Y-106797590D01*
X168009431Y-106585390D01*
X168060440Y-106333500D01*
X168060440Y-104767612D01*
X168350776Y-104477276D01*
X168521463Y-104221825D01*
X168581400Y-103920500D01*
X168581400Y-92617500D01*
X168521463Y-92316175D01*
X168350776Y-92060724D01*
X167588776Y-91298724D01*
X167333325Y-91128037D01*
X167032000Y-91068100D01*
X162777500Y-91068100D01*
X162476175Y-91128037D01*
X162220724Y-91298724D01*
X161465235Y-92054213D01*
X161168559Y-91995200D01*
X161109841Y-91995200D01*
X160536352Y-92109274D01*
X160050171Y-92434130D01*
X159884988Y-92681344D01*
X159870392Y-92646020D01*
X159449197Y-92224090D01*
X159437400Y-92219191D01*
X159437400Y-90751269D01*
X159528317Y-90734162D01*
X159744441Y-90595090D01*
X159790969Y-90526994D01*
X159933302Y-90669327D01*
X160166691Y-90766000D01*
X160757250Y-90766000D01*
X160916000Y-90607250D01*
X160916000Y-89633000D01*
X161170000Y-89633000D01*
X161170000Y-90607250D01*
X161328750Y-90766000D01*
X161919309Y-90766000D01*
X162152698Y-90669327D01*
X162331327Y-90490699D01*
X162428000Y-90257310D01*
X162428000Y-89791750D01*
X162269250Y-89633000D01*
X161170000Y-89633000D01*
X160916000Y-89633000D01*
X160896000Y-89633000D01*
X160896000Y-89379000D01*
X160916000Y-89379000D01*
X160916000Y-88404750D01*
X161170000Y-88404750D01*
X161170000Y-89379000D01*
X162269250Y-89379000D01*
X162428000Y-89220250D01*
X162428000Y-88754690D01*
X162331327Y-88521301D01*
X162152698Y-88342673D01*
X161919309Y-88246000D01*
X161328750Y-88246000D01*
X161170000Y-88404750D01*
X160916000Y-88404750D01*
X160757250Y-88246000D01*
X160166691Y-88246000D01*
X159933302Y-88342673D01*
X159792064Y-88483910D01*
X159757090Y-88429559D01*
X159544890Y-88284569D01*
X159293000Y-88233560D01*
X157793000Y-88233560D01*
X157557683Y-88277838D01*
X157341559Y-88416910D01*
X157196569Y-88629110D01*
X157145560Y-88881000D01*
X157145560Y-90131000D01*
X157189838Y-90366317D01*
X157328910Y-90582441D01*
X157541110Y-90727431D01*
X157761000Y-90771960D01*
X157761000Y-92218650D01*
X157751420Y-92222608D01*
X157329490Y-92643803D01*
X157100861Y-93194402D01*
X157100341Y-93790582D01*
X157328008Y-94341580D01*
X157547034Y-94560988D01*
X157375902Y-94631873D01*
X157197273Y-94810501D01*
X157100600Y-95043890D01*
X157100600Y-95748050D01*
X157259350Y-95906800D01*
X158472200Y-95906800D01*
X158472200Y-95886800D01*
X158726200Y-95886800D01*
X158726200Y-95906800D01*
X158746200Y-95906800D01*
X158746200Y-96160800D01*
X158726200Y-96160800D01*
X158726200Y-97373650D01*
X158833010Y-97480460D01*
X158815100Y-97570500D01*
X158815100Y-103285502D01*
X158875037Y-103586827D01*
X159045724Y-103842278D01*
X161077722Y-105874276D01*
X161333173Y-106044963D01*
X161634498Y-106104900D01*
X162403292Y-106104900D01*
X162657222Y-106484933D01*
X163173651Y-106830000D01*
X157074000Y-106830000D01*
X157074000Y-96319550D01*
X157100600Y-96319550D01*
X157100600Y-97023710D01*
X157197273Y-97257099D01*
X157375902Y-97435727D01*
X157609291Y-97532400D01*
X158313450Y-97532400D01*
X158472200Y-97373650D01*
X158472200Y-96160800D01*
X157259350Y-96160800D01*
X157100600Y-96319550D01*
X157074000Y-96319550D01*
X157074000Y-87930000D01*
X170894000Y-87930000D01*
X170894000Y-106830000D01*
G36*
X167006600Y-98641992D02*
X166629027Y-98465032D01*
X166397000Y-98585531D01*
X166397000Y-99793000D01*
X166417000Y-99793000D01*
X166417000Y-100047000D01*
X166397000Y-100047000D01*
X166397000Y-100067000D01*
X166143000Y-100067000D01*
X166143000Y-100047000D01*
X166123000Y-100047000D01*
X166123000Y-99793000D01*
X166143000Y-99793000D01*
X166143000Y-98585531D01*
X165910973Y-98465032D01*
X165762001Y-98534852D01*
X165762001Y-97447297D01*
X166189841Y-97532400D01*
X166248559Y-97532400D01*
X166822048Y-97418326D01*
X167006600Y-97295012D01*
X167006600Y-98641992D01*
X167006600Y-98641992D01*
G37*
X167006600Y-98641992D02*
X166629027Y-98465032D01*
X166397000Y-98585531D01*
X166397000Y-99793000D01*
X166417000Y-99793000D01*
X166417000Y-100047000D01*
X166397000Y-100047000D01*
X166397000Y-100067000D01*
X166143000Y-100067000D01*
X166143000Y-100047000D01*
X166123000Y-100047000D01*
X166123000Y-99793000D01*
X166143000Y-99793000D01*
X166143000Y-98585531D01*
X165910973Y-98465032D01*
X165762001Y-98534852D01*
X165762001Y-97447297D01*
X166189841Y-97532400D01*
X166248559Y-97532400D01*
X166822048Y-97418326D01*
X167006600Y-97295012D01*
X167006600Y-98641992D01*
M02*
