G04 #@! TF.FileFunction,Legend,Bot*
%FSLAX46Y46*%
G04 Gerber Fmt 4.6, Leading zero omitted, Abs format (unit mm)*
G04 Created by KiCad (PCBNEW 4.0.1-stable) date 03/05/2016 22:29:02*
%MOMM*%
G01*
G04 APERTURE LIST*
%ADD10C,0.100000*%
%ADD11C,0.444500*%
%ADD12C,0.150000*%
%ADD13C,0.152400*%
%ADD14C,2.127200*%
%ADD15R,2.127200X2.127200*%
%ADD16O,2.127200X2.127200*%
%ADD17R,1.650000X1.900000*%
%ADD18R,2.432000X2.432000*%
%ADD19O,2.432000X2.432000*%
%ADD20R,2.901900X1.400760*%
%ADD21R,4.400500X2.398980*%
G04 APERTURE END LIST*
D10*
D11*
X159158000Y-104365000D02*
X159242667Y-104449667D01*
X159158000Y-104534333D01*
X159073334Y-104449667D01*
X159158000Y-104365000D01*
X159158000Y-104534333D01*
D12*
X170422000Y-90276000D02*
X170422000Y-91276000D01*
X168722000Y-91276000D02*
X168722000Y-90276000D01*
X158308000Y-90260000D02*
X158308000Y-89260000D01*
X160008000Y-89260000D02*
X160008000Y-90260000D01*
X167540000Y-103730000D02*
X162460000Y-103730000D01*
X159640000Y-104010000D02*
X161190000Y-104010000D01*
X159920000Y-101190000D02*
X162460000Y-101190000D01*
X162460000Y-101190000D02*
X162460000Y-103730000D01*
X167540000Y-103730000D02*
X167540000Y-98650000D01*
X167540000Y-98650000D02*
X162460000Y-98650000D01*
X159640000Y-104010000D02*
X159640000Y-102460000D01*
X159920000Y-98650000D02*
X159920000Y-101190000D01*
X162460000Y-98650000D02*
X159920000Y-98650000D01*
X164037340Y-91659920D02*
X164337060Y-91411000D01*
X164337060Y-91411000D02*
X164486920Y-91309400D01*
X164486920Y-91309400D02*
X163638560Y-91309400D01*
X165538480Y-92010440D02*
X163737620Y-92010440D01*
X165538480Y-92010440D02*
X165538480Y-91360200D01*
X165538480Y-87509560D02*
X163737620Y-87509560D01*
X165538480Y-87509560D02*
X165538480Y-88159800D01*
X168722000Y-100019000D02*
X168722000Y-99019000D01*
X170422000Y-99019000D02*
X170422000Y-100019000D01*
D13*
X170031619Y-93981238D02*
X170031619Y-93400667D01*
X170031619Y-93690953D02*
X169015619Y-93690953D01*
X169160762Y-93594191D01*
X169257524Y-93497429D01*
X169305905Y-93400667D01*
X169354286Y-94852095D02*
X170031619Y-94852095D01*
X169354286Y-94416667D02*
X169886476Y-94416667D01*
X169983238Y-94465048D01*
X170031619Y-94561810D01*
X170031619Y-94706952D01*
X169983238Y-94803714D01*
X169934857Y-94852095D01*
X169499429Y-95674571D02*
X169499429Y-95335905D01*
X170031619Y-95335905D02*
X169015619Y-95335905D01*
X169015619Y-95819714D01*
X157966619Y-89155238D02*
X157966619Y-88574667D01*
X157966619Y-88864953D02*
X156950619Y-88864953D01*
X157095762Y-88768191D01*
X157192524Y-88671429D01*
X157240905Y-88574667D01*
X157289286Y-90026095D02*
X157966619Y-90026095D01*
X157289286Y-89590667D02*
X157821476Y-89590667D01*
X157918238Y-89639048D01*
X157966619Y-89735810D01*
X157966619Y-89880952D01*
X157918238Y-89977714D01*
X157869857Y-90026095D01*
X157434429Y-90848571D02*
X157434429Y-90509905D01*
X157966619Y-90509905D02*
X156950619Y-90509905D01*
X156950619Y-90993714D01*
X158982619Y-99817191D02*
X157966619Y-99817191D01*
X158885857Y-100881572D02*
X158934238Y-100833191D01*
X158982619Y-100688048D01*
X158982619Y-100591286D01*
X158934238Y-100446144D01*
X158837476Y-100349382D01*
X158740714Y-100301001D01*
X158547190Y-100252620D01*
X158402048Y-100252620D01*
X158208524Y-100301001D01*
X158111762Y-100349382D01*
X158015000Y-100446144D01*
X157966619Y-100591286D01*
X157966619Y-100688048D01*
X158015000Y-100833191D01*
X158063381Y-100881572D01*
X158934238Y-101268620D02*
X158982619Y-101413763D01*
X158982619Y-101655667D01*
X158934238Y-101752429D01*
X158885857Y-101800810D01*
X158789095Y-101849191D01*
X158692333Y-101849191D01*
X158595571Y-101800810D01*
X158547190Y-101752429D01*
X158498810Y-101655667D01*
X158450429Y-101462144D01*
X158402048Y-101365382D01*
X158353667Y-101317001D01*
X158256905Y-101268620D01*
X158160143Y-101268620D01*
X158063381Y-101317001D01*
X158015000Y-101365382D01*
X157966619Y-101462144D01*
X157966619Y-101704048D01*
X158015000Y-101849191D01*
X158982619Y-102284620D02*
X157966619Y-102284620D01*
X157966619Y-102671667D01*
X158015000Y-102768429D01*
X158063381Y-102816810D01*
X158160143Y-102865191D01*
X158305286Y-102865191D01*
X158402048Y-102816810D01*
X158450429Y-102768429D01*
X158498810Y-102671667D01*
X158498810Y-102284620D01*
X170031619Y-102641429D02*
X170031619Y-102060858D01*
X170031619Y-102351144D02*
X169015619Y-102351144D01*
X169160762Y-102254382D01*
X169257524Y-102157620D01*
X169305905Y-102060858D01*
X169015619Y-103270382D02*
X169015619Y-103367143D01*
X169064000Y-103463905D01*
X169112381Y-103512286D01*
X169209143Y-103560667D01*
X169402667Y-103609048D01*
X169644571Y-103609048D01*
X169838095Y-103560667D01*
X169934857Y-103512286D01*
X169983238Y-103463905D01*
X170031619Y-103367143D01*
X170031619Y-103270382D01*
X169983238Y-103173620D01*
X169934857Y-103125239D01*
X169838095Y-103076858D01*
X169644571Y-103028477D01*
X169402667Y-103028477D01*
X169209143Y-103076858D01*
X169112381Y-103125239D01*
X169064000Y-103173620D01*
X169015619Y-103270382D01*
X169354286Y-104479905D02*
X170031619Y-104479905D01*
X169354286Y-104044477D02*
X169886476Y-104044477D01*
X169983238Y-104092858D01*
X170031619Y-104189620D01*
X170031619Y-104334762D01*
X169983238Y-104431524D01*
X169934857Y-104479905D01*
X169499429Y-105302381D02*
X169499429Y-104963715D01*
X170031619Y-104963715D02*
X169015619Y-104963715D01*
X169015619Y-105447524D01*
%LPC*%
D14*
X158599200Y-93493800D03*
D15*
X158599200Y-96033800D03*
D16*
X161139200Y-93493800D03*
X161139200Y-96033800D03*
X163679200Y-93493800D03*
X163679200Y-96033800D03*
X166219200Y-93493800D03*
X166219200Y-96033800D03*
D17*
X169572000Y-92026000D03*
X169572000Y-89526000D03*
X159158000Y-88510000D03*
X159158000Y-91010000D03*
D15*
X161190000Y-102460000D03*
D16*
X161190000Y-99920000D03*
X163730000Y-102460000D03*
X163730000Y-99920000D03*
X166270000Y-102460000D03*
X166270000Y-99920000D03*
D18*
X166397000Y-105317500D03*
D19*
X163857000Y-105317500D03*
D20*
X161885960Y-91261140D03*
X161885960Y-89760000D03*
X161885960Y-88258860D03*
D21*
X165838200Y-89760000D03*
D10*
G36*
X162914050Y-89059620D02*
X164063350Y-88559240D01*
X164063350Y-90960760D01*
X162914050Y-90460380D01*
X162914050Y-89059620D01*
X162914050Y-89059620D01*
G37*
D17*
X169572000Y-98269000D03*
X169572000Y-100769000D03*
M02*
